<?xml version="1.0" encoding="UTF-8"?>
<svg width="754px" height="167px" viewBox="0 0 754 167" version="1.1" xmlns="http://www.w3.org/2000/svg" xmlns:xlink="http://www.w3.org/1999/xlink">
    <title>编组 8</title>
    <defs>
        <linearGradient x1="0.0929500064%" y1="50.0965515%" x2="99.9226362%" y2="49.8761193%" id="linearGradient-1">
            <stop stop-color="#EF1A80" offset="0%"></stop>
            <stop stop-color="#F68A72" offset="100%"></stop>
        </linearGradient>
        <linearGradient x1="50.2103347%" y1="7.94426875%" x2="49.7305018%" y2="92.0682977%" id="linearGradient-2">
            <stop stop-color="#EF1A80" offset="0%"></stop>
            <stop stop-color="#F68A72" offset="100%"></stop>
        </linearGradient>
        <linearGradient x1="8.81179334%" y1="50.2101762%" x2="91.2010699%" y2="49.7303328%" id="linearGradient-3">
            <stop stop-color="#EF1A80" offset="0%"></stop>
            <stop stop-color="#F68A72" offset="100%"></stop>
        </linearGradient>
    </defs>
    <g id="脑图-20230729-徐杰" stroke="none" stroke-width="1" fill="none" fill-rule="evenodd">
        <g id="官网备份-3" transform="translate(-423.000000, -282.000000)">
            <g id="编组-8" transform="translate(423.000000, 282.000000)">
                <g id="mindcute" transform="translate(192.346897, 34.701299)">
                    <polygon id="Fill-1" fill="#051B2A" points="122.279188 95.2643206 134.167131 27.2320676 155.551614 27.2320676 143.672305 95.2643206"></polygon>
                    <path d="M198.45267,95.2643206 L205.851339,52.8977121 C207.27582,44.7345387 201.828259,43.157661 198.944763,43.157661 C196.078535,43.157661 190.061181,44.7345387 188.6367,52.8977121 L181.238031,95.2643206 L159.853548,95.2643206 L172.22495,24.4703537 L193.091441,24.4703537 L192.081354,30.2638546 C197.140421,25.9252629 203.917498,23.6775589 209.520457,23.6775589 C216.176669,23.6775589 221.132136,25.9252629 224.240095,29.7324207 C229.18693,35.7872825 229.057432,42.4955466 227.745182,49.9966056 L219.837154,95.2643206 L198.45267,95.2643206 Z" id="Fill-2" fill="#051B2A"></path>
                    <path d="M272.281369,43.153305 C264.312908,43.153305 262.275469,49.6002082 260.479759,59.8629811 C258.692683,70.1344661 258.468219,76.5726573 266.43668,76.5726573 C274.387875,76.5726573 276.425315,70.1344661 278.221024,59.8629811 C280.016734,49.6002082 280.232564,43.153305 272.281369,43.153305 L272.281369,43.153305 Z M272.687131,95.2599646 L273.697217,89.4664637 C268.638151,93.8137674 263.682683,96.0527594 256.37898,96.0527594 C249.601903,96.0527594 243.74858,93.6830869 240.424791,89.6058562 C234.726867,82.6275191 237.282299,70.2564346 239.095275,59.8629811 C240.916885,49.4695277 242.678061,37.0984432 250.819187,30.1288181 C255.567457,26.0515874 262.111437,23.6819149 268.888514,23.6819149 C275.803723,23.6819149 280.284364,25.650834 283.513187,29.5973842 L288.408223,1.57949129 L309.792706,1.57949129 L293.41549,95.2599646 L272.687131,95.2599646 Z" id="Fill-4" fill="#051B2A"></path>
                    <path d="M337.907648,96.051017 C325.786608,96.051017 307.268353,90.7889501 312.672748,59.8699508 C318.077143,28.9422394 338.434274,23.6801725 350.555313,23.6801725 C360.345384,23.6801725 367.321025,26.9733203 372.052029,32.7581091 L355.018688,47.3681857 C352.774051,44.5977598 350.676179,43.1515626 347.145192,43.1515626 C344.278963,43.1515626 342.163825,44.0750379 340.022786,45.9219885 C337.087492,48.54431 335.239983,53.1529746 334.074498,59.8699508 C332.90038,66.5782149 333.133477,71.1868795 335.153651,73.8092009 C336.647198,75.6561516 338.442907,76.5796269 341.317769,76.5796269 C344.840122,76.5796269 347.438721,75.1334297 350.658912,72.3630037 L362.572754,86.9730803 C355.83021,92.7578692 347.697718,96.051017 337.907648,96.051017" id="Fill-6" fill="#051B2A"></path>
                    <path d="M410.058913,95.2643206 L411.068999,89.4708197 C406.0013,93.8181234 399.232856,96.0484034 393.621263,96.0484034 C386.965052,96.0484034 382.018217,93.8181234 378.901625,90.0022537 C373.963424,83.9473919 374.084289,77.2391277 375.396538,69.7380687 L383.304567,24.4703537 L404.68905,24.4703537 L397.290382,66.8369622 C395.857267,75.0001356 401.330728,76.5770133 404.196957,76.5770133 C407.063186,76.5770133 413.089172,75.0001356 414.513654,66.8369622 L421.912322,24.4703537 L443.296806,24.4703537 L430.925403,95.2643206 L410.058913,95.2643206 Z" id="Fill-8" fill="#051B2A"></path>
                    <path d="M470.47418,95.2643206 C454.960285,95.2643206 450.652309,84.0780723 452.353053,74.3467333 L457.688382,43.8110633 L451.291167,43.8110633 L454.191928,27.2320676 L460.580511,27.2320676 L464.128764,6.97659472 L485.504614,6.97659472 L481.964994,27.2320676 L493.050047,27.2320676 L490.149286,43.8110633 L479.072866,43.8110633 L474.013799,72.7611436 C473.530339,75.5228575 474.68719,77.0997352 477.553419,77.0997352 L484.339129,77.0997352 L481.162105,95.2643206 L470.47418,95.2643206 Z" id="Fill-10" fill="#051B2A"></path>
                    <path d="M540.484406,46.9735307 C539.707417,43.9417438 537.272849,41.4413908 532.187883,41.4413908 C527.102917,41.4413908 523.796394,43.9417438 521.957518,46.9735307 C520.731601,48.8117693 520.127276,50.7894005 519.81648,52.4969586 L540.68297,52.4969586 C540.985133,50.7894005 541.071465,48.8117693 540.484406,46.9735307 L540.484406,46.9735307 Z M517.312846,66.8369622 C516.30276,72.6304631 519.81648,77.8925301 527.767675,77.8925301 C535.209509,77.8925301 538.835461,75.7929305 543.281569,71.9683487 L553.814097,84.8708672 C545.362175,92.1018532 537.644077,96.0484034 524.599283,96.0484034 C509.076755,96.0484034 492.207445,90.3942951 497.542775,59.8673372 C501.591754,36.7107578 516.907085,23.6775589 535.287208,23.6775589 C555.635706,23.6775589 564.225759,38.6796769 560.988302,57.2363037 L559.313457,66.8369622 L517.312846,66.8369622 Z" id="Fill-12" fill="#051B2A"></path>
                    <polygon id="Fill-14" fill="#051B2A" points="76.887449 95.1789427 88.3091978 40.0579202 87.5840074 40.0579202 60.6483639 95.1789427 41.1804549 95.1789427 35.663828 40.0579202 35.0595026 40.0579202 25.7787921 95.1789427 6.14250295e-14 95.1789427 18.362857 6.31829365e-13 53.5863907 6.31829365e-13 59.0943845 52.1589318 59.6987098 52.1589318 83.5436609 6.31829365e-13 122.10825 6.31829365e-13 103.745394 95.1789427"></polygon>
                    <polygon id="路径" fill="url(#linearGradient-1)" points="135.911041 17.2306556 138.785903 0.782340417 160.17902 0.782340417 157.304158 17.2306556"></polygon>
                </g>
                <g id="logo-2" transform="translate(-0.000000, 0.000000)">
                    <g id="logo" transform="translate(0.000000, 0.000000)">
                        <g id="编组-7" transform="translate(0.000000, 0.000000)">
                            <path d="M8.3700361,76.6028731 C5.1880389,79.2800187 2.56807926,82.7133712 1.01166759,86.6074012 C0.354515992,88.2415031 0.034586926,89.6930724 1.1517193e-13,91.0924895 L1.1517193e-13,91.6574715 C0.051880389,93.6218706 0.648504863,95.5341175 1.63423225,97.7679696 C4.93728369,105.225733 11.0591696,111.318847 18.3137773,114.891272 C27.4360791,119.402436 38.1839663,120.097798 48.0931206,117.803102 C45.4212806,126.147452 43.4844127,134.969864 44.6863084,143.661896 C45.8709106,152.353927 50.6611999,160.932962 58.5037854,164.766148 C61.6944293,166.322022 65.1098882,167 68.5858743,167 L68.6377547,167 C75.745368,166.991308 84.7444562,165.755568 90.9182225,161.922382 C99.6341279,156.524631 105.835994,147.01702 108.075497,136.969031 C109.891311,128.78983 107.746921,120.384635 104.52169,112.518347 C93.2722927,86.4335606 67.7817283,68.006454 37.8467438,67.180711 C33.298563,67.3110914 28.7849692,67.8326133 24.3405492,68.9365013 C18.5645325,70.3619945 12.9355103,72.7609952 8.3700361,76.6028731 Z" id="Fill-1" fill="url(#linearGradient-2)"></path>
                            <path d="M90.7560939,-7.70523616e-15 C89.3207364,0.0173840629 87.8334986,0.338989226 86.1560327,1.01696768 L86.1560327,1.01696768 C82.2909437,2.57284131 78.8754848,5.22391089 76.2036448,8.42257846 L76.2036448,8.42257846 C72.3817894,13.003279 70.0039383,18.6617915 68.5772276,24.4680685 L68.5772276,24.4680685 C67.4790927,28.9357727 66.9689355,33.4730131 66.8305878,38.0363296 L66.8305878,38.0363296 C67.6693208,68.1368344 85.9744514,93.7609431 111.949233,105.069276 L111.949233,105.069276 C119.757231,108.320096 128.118621,110.467028 136.263842,108.633009 L136.263842,108.633009 C146.250817,106.399157 154.136636,98.5067923 159.514903,89.7452246 L159.514903,89.7452246 C165.187159,80.4882111 168.637205,68.5975121 163.907442,58.8189767 L163.907442,58.8189767 C160.094234,50.9266122 151.55991,46.1112268 142.921825,44.9204185 L142.921825,44.9204185 C134.275094,43.7209181 125.490014,45.6505491 117.189152,48.3450789 L117.189152,48.3450789 C119.480536,38.3840108 118.788797,27.5798157 114.292497,18.4010306 L114.292497,18.4010306 C110.73869,11.1171082 104.668685,4.95445792 97.2670827,1.65148597 L97.2670827,1.65148597 C94.9756989,0.625826263 93.0301843,0.0173840629 91.0068491,-7.70523616e-15 L91.0068491,-7.70523616e-15 L90.7560939,-7.70523616e-15 Z" id="Fill-3" fill="url(#linearGradient-3)"></path>
                        </g>
                    </g>
                </g>
            </g>
        </g>
    </g>
</svg>