<?xml version="1.0" encoding="UTF-8"?>
<svg width="167px" height="167px" viewBox="0 0 167 167" version="1.1" xmlns="http://www.w3.org/2000/svg" xmlns:xlink="http://www.w3.org/1999/xlink">
    <title>logo</title>
    <defs>
        <linearGradient x1="50.2103347%" y1="7.94426875%" x2="49.7305018%" y2="92.0682977%" id="linearGradient-1">
            <stop stop-color="#EF1A80" offset="0%"></stop>
            <stop stop-color="#F68A72" offset="100%"></stop>
        </linearGradient>
        <linearGradient x1="8.81179334%" y1="50.2101762%" x2="91.2010699%" y2="49.7303328%" id="linearGradient-2">
            <stop stop-color="#EF1A80" offset="0%"></stop>
            <stop stop-color="#F68A72" offset="100%"></stop>
        </linearGradient>
    </defs>
    <g id="脑图-20230729-徐杰" stroke="none" stroke-width="1" fill="none" fill-rule="evenodd">
        <g id="官网备份-3" transform="translate(-423.000000, -282.000000)">
            <g id="编组-8" transform="translate(423.000000, 282.000000)">
                <g id="logo-2" transform="translate(-0.000000, 0.000000)">
                    <g id="logo" transform="translate(0.000000, 0.000000)">
                        <g id="编组-7" transform="translate(0.000000, 0.000000)">
                            <path d="M8.3700361,76.6028731 C5.1880389,79.2800187 2.56807926,82.7133712 1.01166759,86.6074012 C0.354515992,88.2415031 0.034586926,89.6930724 1.1517193e-13,91.0924895 L1.1517193e-13,91.6574715 C0.051880389,93.6218706 0.648504863,95.5341175 1.63423225,97.7679696 C4.93728369,105.225733 11.0591696,111.318847 18.3137773,114.891272 C27.4360791,119.402436 38.1839663,120.097798 48.0931206,117.803102 C45.4212806,126.147452 43.4844127,134.969864 44.6863084,143.661896 C45.8709106,152.353927 50.6611999,160.932962 58.5037854,164.766148 C61.6944293,166.322022 65.1098882,167 68.5858743,167 L68.6377547,167 C75.745368,166.991308 84.7444562,165.755568 90.9182225,161.922382 C99.6341279,156.524631 105.835994,147.01702 108.075497,136.969031 C109.891311,128.78983 107.746921,120.384635 104.52169,112.518347 C93.2722927,86.4335606 67.7817283,68.006454 37.8467438,67.180711 C33.298563,67.3110914 28.7849692,67.8326133 24.3405492,68.9365013 C18.5645325,70.3619945 12.9355103,72.7609952 8.3700361,76.6028731 Z" id="Fill-1" fill="url(#linearGradient-1)"></path>
                            <path d="M90.7560939,-7.70523616e-15 C89.3207364,0.0173840629 87.8334986,0.338989226 86.1560327,1.01696768 L86.1560327,1.01696768 C82.2909437,2.57284131 78.8754848,5.22391089 76.2036448,8.42257846 L76.2036448,8.42257846 C72.3817894,13.003279 70.0039383,18.6617915 68.5772276,24.4680685 L68.5772276,24.4680685 C67.4790927,28.9357727 66.9689355,33.4730131 66.8305878,38.0363296 L66.8305878,38.0363296 C67.6693208,68.1368344 85.9744514,93.7609431 111.949233,105.069276 L111.949233,105.069276 C119.757231,108.320096 128.118621,110.467028 136.263842,108.633009 L136.263842,108.633009 C146.250817,106.399157 154.136636,98.5067923 159.514903,89.7452246 L159.514903,89.7452246 C165.187159,80.4882111 168.637205,68.5975121 163.907442,58.8189767 L163.907442,58.8189767 C160.094234,50.9266122 151.55991,46.1112268 142.921825,44.9204185 L142.921825,44.9204185 C134.275094,43.7209181 125.490014,45.6505491 117.189152,48.3450789 L117.189152,48.3450789 C119.480536,38.3840108 118.788797,27.5798157 114.292497,18.4010306 L114.292497,18.4010306 C110.73869,11.1171082 104.668685,4.95445792 97.2670827,1.65148597 L97.2670827,1.65148597 C94.9756989,0.625826263 93.0301843,0.0173840629 91.0068491,-7.70523616e-15 L91.0068491,-7.70523616e-15 L90.7560939,-7.70523616e-15 Z" id="Fill-3" fill="url(#linearGradient-2)"></path>
                        </g>
                    </g>
                </g>
            </g>
        </g>
    </g>
</svg>